HIERARCHY
ROOT Hips
{
	OFFSET 0.000000 0.000000 0.000000
	CHANNELS 6 Xposition Yposition Zposition Zrotation Yrotation Xrotation 
	JOINT LHipJoint
	{
		OFFSET 0.000000 0.000000 0.000000
		CHANNELS 3 Zrotation Yrotation Xrotation
		JOINT LeftUpLeg
		{
			OFFSET 1.363060 -1.794630 0.839290
			CHANNELS 3 Zrotation Yrotation Xrotation
			JOINT LeftLeg
			{
				OFFSET 2.448110 -6.726130 0.000000
				CHANNELS 3 Zrotation Yrotation Xrotation
				JOINT LeftFoot
				{
					OFFSET 2.562200 -7.039590 0.000000
					CHANNELS 3 Zrotation Yrotation Xrotation
					JOINT LeftToeBase
					{
						OFFSET 0.157640 -0.433110 2.322550
						CHANNELS 3 Zrotation Yrotation Xrotation
						End Site
						{
							OFFSET 0.000000 0.000000 0.000000
						}
					}
				}
			}
		}
	}
	JOINT RHipJoint
	{
		OFFSET 0.000000 0.000000 0.000000
		CHANNELS 3 Zrotation Yrotation Xrotation
		JOINT RightUpLeg
		{
			OFFSET -1.305520 -1.794630 0.839290
			CHANNELS 3 Zrotation Yrotation Xrotation
			JOINT RightLeg
			{
				OFFSET -2.542530 -6.985550 0.000000
				CHANNELS 3 Zrotation Yrotation Xrotation
				JOINT RightFoot
				{
					OFFSET -2.568260 -7.056230 0.000000
					CHANNELS 3 Zrotation Yrotation Xrotation
					JOINT RightToeBase
					{
						OFFSET -0.164730 -0.452590 2.363150
						CHANNELS 3 Zrotation Yrotation Xrotation
						End Site
						{
							OFFSET 0.000000 0.000000 0.000000
						}
					}
				}
			}
		}
	}
	JOINT LowerBack
	{
		OFFSET 0.000000 0.000000 0.000000
		CHANNELS 3 Zrotation Yrotation Xrotation
		JOINT Spine
		{
			OFFSET 0.028270 2.035590 -0.193380
			CHANNELS 3 Zrotation Yrotation Xrotation
			JOINT Spine1
			{
				OFFSET 0.056720 2.048850 -0.042750
				CHANNELS 3 Zrotation Yrotation Xrotation
				JOINT Neck
				{
					OFFSET 0.000000 0.000000 0.000000
					CHANNELS 3 Zrotation Yrotation Xrotation
					JOINT Neck1
					{
						OFFSET -0.054170 1.746240 0.172020
						CHANNELS 3 Zrotation Yrotation Xrotation
						JOINT Head
						{
							OFFSET 0.104070 1.761360 -0.123970
							CHANNELS 3 Zrotation Yrotation Xrotation
							End Site
							{
								OFFSET 0.000000 0.000000 0.000000
							}
						}
					}
				}
				JOINT LeftShoulder
				{
					OFFSET 0.000000 0.000000 0.000000
					CHANNELS 3 Zrotation Yrotation Xrotation
					JOINT LeftArm
					{
						OFFSET 3.362410 1.200890 -0.311210
						CHANNELS 3 Zrotation Yrotation Xrotation
						JOINT LeftForeArm
						{
							OFFSET 4.983000 -0.000000 -0.000000
							CHANNELS 3 Zrotation Yrotation Xrotation
							JOINT LeftHand
							{
								OFFSET 3.483560 -0.000000 -0.000000
								CHANNELS 3 Zrotation Yrotation Xrotation
								JOINT LeftFingerBase
								{
									OFFSET 0.000000 0.000000 0.000000
									CHANNELS 3 Zrotation Yrotation Xrotation
									JOINT LeftHandIndex1
									{
										OFFSET 0.715260 -0.000000 -0.000000
										CHANNELS 3 Zrotation Yrotation Xrotation
										End Site
										{
											OFFSET 0.000000 0.000000 0.000000
										}
									}
								}
								JOINT LThumb
								{
									OFFSET 0.000000 0.000000 0.000000
									CHANNELS 3 Zrotation Yrotation Xrotation
									End Site
									{
										OFFSET 0.000000 0.000000 0.000000
									}
								}
							}
						}
					}
				}
				JOINT RightShoulder
				{
					OFFSET 0.000000 0.000000 0.000000
					CHANNELS 3 Zrotation Yrotation Xrotation
					JOINT RightArm
					{
						OFFSET -3.136600 1.374050 -0.404650
						CHANNELS 3 Zrotation Yrotation Xrotation
						JOINT RightForeArm
						{
							OFFSET -5.241900 -0.000000 -0.000000
							CHANNELS 3 Zrotation Yrotation Xrotation
							JOINT RightHand
							{
								OFFSET -3.444170 -0.000000 -0.000000
								CHANNELS 3 Zrotation Yrotation Xrotation
								JOINT RightFingerBase
								{
									OFFSET 0.000000 0.000000 0.000000
									CHANNELS 3 Zrotation Yrotation Xrotation
									JOINT RightHandIndex1
									{
										OFFSET -0.622530 -0.000000 -0.000000
										CHANNELS 3 Zrotation Yrotation Xrotation
										End Site
										{
											OFFSET 0.000000 0.000000 0.000000
										}
									}
								}
								JOINT RThumb
								{
									OFFSET 0.000000 0.000000 0.000000
									CHANNELS 3 Zrotation Yrotation Xrotation
									End Site
									{
										OFFSET 0.000000 0.000000 0.000000
									}
								}
							}
						}
					}
				}
			}
		}
	}
}
MOTION
Frames: 12
Frame Time: 0.008333
-1.144936 17.019582 0.638003 -7.560083 82.954216 -8.662257 -10.159063 2.051194 0.423943 -18.808118 17.312312 -23.379182 -2.389969 -0.130036 16.482883 2.976403 16.222197 -12.145821 -1.207600 0.000000 -3.391000 10.570252 -4.312186 -1.117097 -4.219772 -16.261220 5.090138 -0.234713 -2.813377 37.816207 -0.171266 14.876025 26.248545 8.184600 0.000000 -86.913600 -1.471777 1.372943 -1.718579 -0.724267 1.438829 -2.490950 -4.310160 1.407443 3.390215 8.181547 -12.741163 -10.515988 -0.967878 -0.035078 -0.753215 0.000000 0.000000 0.000000 -3.184519 31.106926 1.233052 -75.166861 26.471587 -13.454228 -4.806016 -15.433936 -0.026700 -5.804860 7.179768 -0.362031 -0.127068 -0.103233 -0.000000 0.000000 0.000000 0.000000 0.000000 0.000000 0.000000 7.084264 -6.850014 0.381305 35.466923 13.948671 -5.679957 1.375281 44.998225 0.008159 1.116595 6.948963 0.069307 0.021426 -0.235812 0.000000 0.000000 0.000000 0.000000 0.000000 0.000000 0.000000 
-0.985072 17.003035 0.623498 -5.172080 83.220458 -6.281988 -10.151142 2.096918 0.423516 -19.042989 16.835430 -23.194552 -2.376939 -0.035907 17.646332 3.013962 16.303284 -12.660870 -1.379900 -0.000000 -1.821700 10.690501 -4.203052 -1.149222 -4.850971 -16.322450 3.844117 -0.391872 -2.880208 40.387426 -0.348021 14.699570 27.743118 8.493700 -0.000000 -84.999700 -1.942651 1.252655 -1.686638 -0.818198 1.349719 -2.494144 -4.333876 1.317104 3.372983 8.265161 -12.740085 -10.561025 -0.988999 -0.035925 -0.765834 0.000000 0.000000 0.000000 -3.106586 30.953836 1.246116 -74.818248 25.870810 -13.539102 -4.808132 -15.249337 -0.026342 -5.644388 7.177588 -0.351423 -0.128771 -0.100525 -0.000000 0.000000 0.000000 0.000000 0.000000 0.000000 0.000000 7.219818 -6.857671 0.368309 36.168074 13.510527 -5.939674 1.418947 44.927104 0.008536 1.131800 6.987354 0.070527 0.023858 -0.234118 0.000000 0.000000 0.000000 0.000000 0.000000 0.000000 0.000000 
-0.828806 16.987738 0.608321 -2.771900 83.543965 -3.876945 -10.142077 2.135846 0.417410 -19.282480 16.371392 -22.995872 -2.366748 0.053707 18.760284 3.033104 16.289525 -13.138258 -1.536401 -0.000000 -0.564100 10.799158 -4.088716 -1.182611 -5.355452 -16.316047 2.550698 -0.535496 -2.953604 42.954533 -0.527546 13.943664 28.890057 8.386099 -0.000000 -82.636899 -2.380624 1.120752 -1.640086 -0.903036 1.247121 -2.494420 -4.351926 1.213102 3.354034 8.311962 -12.734290 -10.597570 -1.011520 -0.036997 -0.776210 0.000000 0.000000 0.000000 -3.024114 30.744844 1.262913 -74.446236 25.151114 -13.700816 -4.805133 -14.987999 -0.025809 -5.378296 7.181553 -0.334311 -0.130945 -0.096986 -0.000000 0.000000 0.000000 0.000000 0.000000 0.000000 0.000000 7.312090 -6.871171 0.347898 36.968087 13.023396 -6.259215 1.463550 44.836309 0.008855 1.118752 7.019697 0.069746 0.026733 -0.232470 0.000000 0.000000 0.000000 0.000000 0.000000 0.000000 0.000000 
-0.675776 16.973826 0.591768 -0.432105 83.911877 -1.523589 -10.132402 2.168162 0.405786 -19.509014 15.936075 -22.756495 -2.358678 0.134673 19.780417 3.035250 16.189327 -13.578938 178.324300 -0.000000 -0.351400 10.896888 -3.972720 -1.216775 -5.727616 -16.245278 1.223866 -0.669797 -3.036243 45.482030 -0.706746 12.602004 29.613666 7.829800 -0.000001 -79.992901 -2.764355 0.983757 -1.579319 -0.975225 1.136148 -2.491602 -4.365298 1.100754 3.333995 8.322628 -12.731475 -10.625239 -1.035099 -0.038281 -0.784212 0.000000 0.000000 0.000000 -2.942168 30.488337 1.280819 -74.050036 24.321131 -13.927988 -4.796360 -14.666826 -0.025106 -5.013446 7.181644 -0.310696 -0.133448 -0.092635 -0.000000 0.000000 0.000000 0.000000 0.000000 0.000000 0.000000 7.364237 -6.896744 0.321322 37.847042 12.490078 -6.622630 1.508653 44.726795 0.009109 1.075924 7.047717 0.067165 0.030023 -0.230848 0.000000 0.000000 0.000000 0.000000 0.000000 0.000000 0.000000 
-0.525403 16.961469 0.573204 1.770504 84.308682 0.698275 -10.122179 2.194847 0.388811 -19.708782 15.544698 -22.456300 -2.352941 0.203570 20.671331 3.023834 16.017540 -13.996496 178.198800 0.000000 -0.999600 10.984409 -3.857022 -1.249572 -5.966214 -16.108838 -0.123687 -0.799200 -3.128300 47.931213 -0.883920 10.721024 29.855150 6.851600 0.000000 -77.196500 -3.076261 0.848429 -1.507132 -1.032157 1.022359 -2.486200 -4.375395 0.985769 3.312993 8.299690 -12.735281 -10.643068 -1.059755 -0.039804 -0.789526 0.000000 0.000000 0.000000 -2.868234 30.193517 1.296899 -73.627905 23.395026 -14.203269 -4.781383 -14.311258 -0.024242 -4.563662 7.164692 -0.280978 -0.136103 -0.087543 -0.000000 0.000000 0.000000 0.000000 0.000000 0.000000 0.000000 7.381676 -6.935775 0.290227 38.783687 11.911141 -7.013656 1.554259 44.600481 0.009304 1.006849 7.072672 0.062686 0.033662 -0.229193 0.000000 0.000000 0.000000 0.000000 0.000000 0.000000 0.000000 
-0.377139 16.950812 0.552148 3.755329 84.718209 2.705977 -10.111599 2.217643 0.366857 -19.872304 15.210068 -22.083033 -2.350147 0.258222 21.408396 3.003297 15.793849 -14.406131 178.082100 0.000000 -1.457000 11.061977 -3.742394 -1.277617 -6.074607 -15.902255 -1.480377 -0.926832 -3.227818 50.261903 -1.057481 8.399894 29.575543 5.536200 -0.000000 -74.332600 -3.303942 0.721114 -1.428585 -1.072333 0.911190 -2.479497 -4.383876 0.873648 3.290165 8.246438 -12.742360 -10.648797 -1.085976 -0.041656 -0.791467 0.000000 0.000000 0.000000 -2.809961 29.867550 1.308505 -73.178297 22.393312 -14.503884 -4.760293 -13.953074 -0.023234 -4.050160 7.116268 -0.246357 -0.138725 -0.081837 -0.000000 0.000000 0.000000 0.000000 0.000000 0.000000 0.000000 7.370037 -6.981999 0.256328 39.759727 11.279348 -7.422076 1.600800 44.462548 0.009468 0.922392 7.094647 0.057305 0.037518 -0.227417 0.000000 0.000000 0.000000 0.000000 0.000000 0.000000 0.000000 
-0.230382 16.941993 0.528201 5.449235 85.126026 4.425306 -10.101276 2.238666 0.340446 -19.994853 14.939599 -21.629850 -2.350624 0.297706 21.974825 2.978110 15.541303 -14.813418 177.971700 -0.000000 -1.746900 11.129290 -3.628612 -1.297399 -6.061860 -15.620840 -2.833923 -1.053437 -3.331133 52.430553 -1.225530 5.778912 28.765882 4.012600 0.000000 -71.494600 -3.443689 0.606125 -1.349326 -1.095886 0.806616 -2.471978 -4.392427 0.768469 3.268178 8.171732 -12.763965 -10.644362 -1.113758 -0.043812 -0.790528 0.000000 0.000000 0.000000 -2.771636 29.527760 1.312541 -72.699457 21.325518 -14.803757 -4.733866 -13.617180 -0.022105 -3.497597 7.022027 -0.208433 -0.141170 -0.075661 -0.000000 0.000000 0.000000 0.000000 0.000000 0.000000 0.000000 7.345203 -7.045472 0.221300 40.746690 10.617131 -7.817464 1.648878 44.303566 0.009608 0.824440 7.117145 0.050924 0.041577 -0.225419 0.000000 0.000000 0.000000 0.000000 0.000000 0.000000 0.000000 
-0.084611 16.935158 0.501174 6.773522 85.519732 5.777591 -10.092060 2.259675 0.310574 -20.074607 14.735540 -21.097787 -2.354717 0.321976 22.365520 2.952648 15.281164 -15.227329 177.863400 0.000000 -1.947600 11.185414 -3.515511 -1.304768 -5.939198 -15.258619 -4.173373 -1.177253 -3.433682 54.396503 -1.385114 3.022188 27.443847 2.431000 -0.000000 -68.691500 -3.495312 0.506586 -1.276363 -1.103453 0.711609 -2.465169 -4.402478 0.673166 3.246749 8.081580 -12.795401 -10.628101 -1.143654 -0.046352 -0.786207 0.000000 0.000000 0.000000 -2.757622 29.181924 1.307277 -72.191106 20.212292 -15.074642 -4.703367 -13.335415 -0.020879 -2.934854 6.871972 -0.169506 -0.143320 -0.069205 -0.000000 0.000000 0.000000 0.000000 0.000000 0.000000 0.000000 7.315614 -7.119514 0.186327 41.729276 9.922159 -8.190027 1.699463 44.123591 0.009760 0.726066 7.139688 0.044442 0.045715 -0.223078 0.000000 0.000000 0.000000 0.000000 0.000000 0.000000 0.000000 
0.060644 16.930440 0.471051 7.666134 85.891869 6.701303 -10.084940 2.281970 0.278218 -20.113137 14.594302 -20.490448 -2.362236 0.331774 22.582798 2.930154 15.031266 -15.648729 177.755500 -0.000001 -2.098700 11.229301 -3.402997 -1.296243 -5.721098 -14.812231 -5.487315 -1.294005 -3.530556 56.120882 -1.532724 0.295052 25.658886 0.936799 0.000000 -65.939900 -3.465022 0.423115 -1.215622 -1.096687 0.627066 -2.459860 -4.415202 0.588623 3.227400 7.984016 -12.839135 -10.600675 -1.175913 -0.049288 -0.778674 0.000000 0.000000 0.000000 -2.768812 28.841151 1.291386 -71.654107 19.066923 -15.289822 -4.670538 -13.132328 -0.019584 -2.390567 6.660913 -0.132077 -0.145116 -0.062653 -0.000000 0.000000 0.000000 0.000000 0.000000 0.000000 0.000000 7.293618 -7.206229 0.152187 42.690848 9.208155 -8.522836 1.753650 43.912791 0.009948 0.635309 7.162698 0.038457 0.049874 -0.220270 0.000000 0.000000 0.000000 0.000000 0.000000 0.000000 0.000000 
0.205716 16.927922 0.437919 8.077543 86.239656 7.147633 -10.080659 2.305968 0.244602 -20.113586 14.505871 -19.814154 -2.372509 0.328233 22.634643 2.912661 14.804126 -16.073759 177.647600 -0.000001 -2.235100 11.260134 -3.291111 -1.269234 -5.423940 -14.281308 -6.764644 -1.397692 -3.617062 57.570706 -1.664474 -2.255028 23.487088 -0.352000 0.000000 -63.235800 -3.361846 0.354332 -1.171727 -1.077512 0.552075 -2.456627 -4.431306 0.513899 3.211292 7.886115 -12.895867 -10.562643 -1.210662 -0.052618 -0.768093 0.000000 0.000000 0.000000 -2.803624 28.512999 1.264528 -71.090345 17.902116 -15.426336 -4.637312 -13.028746 -0.018244 -1.890830 6.389676 -0.098346 -0.146555 -0.056173 -0.000000 0.000000 0.000000 0.000000 0.000000 0.000000 0.000000 7.288973 -7.306775 0.119194 43.620731 8.486130 -8.805638 1.812564 43.660918 0.010197 0.560715 7.184993 0.033474 0.053996 -0.216877 0.000000 0.000000 0.000000 0.000000 0.000000 0.000000 0.000000 
0.350889 16.927730 0.402068 7.967980 86.565828 7.078085 -10.079617 2.331616 0.211059 -20.079309 14.456629 -19.075416 -2.384504 0.312800 22.533659 2.900586 14.604876 -16.493586 177.541400 -0.000000 -2.377700 11.277502 -3.180114 -1.222041 -5.063636 -13.669068 -7.994621 -1.481570 -3.689025 58.720227 -1.776783 -4.514577 21.027424 -1.360299 -0.000000 -60.598100 -3.196064 0.297152 -1.147915 -1.047883 0.484102 -2.455948 -4.451206 0.446411 3.198774 7.793086 -12.961950 -10.513914 -1.248120 -0.056359 -0.754467 0.000000 0.000000 0.000000 -2.858529 28.200335 1.227468 -70.502768 16.730802 -15.465837 -4.605471 -13.041450 -0.016890 -1.456575 6.065415 -0.070012 -0.147673 -0.049905 -0.000000 0.000000 0.000000 0.000000 0.000000 0.000000 0.000000 7.307818 -7.418529 0.087193 44.515351 7.760664 -9.037523 1.877210 43.358779 0.010524 0.510717 7.203772 0.030088 0.058022 -0.212799 0.000000 0.000000 0.000000 0.000000 0.000000 0.000000 0.000000 
0.496204 16.929874 0.363850 7.312830 86.877883 6.467751 -10.081552 2.358335 0.179092 -20.014505 14.428653 -18.279402 -2.396900 0.287039 22.293653 2.893035 14.432788 -16.894606 177.440200 -0.000000 -2.525500 11.281689 -3.070143 -1.155225 -4.657067 -12.986265 -9.168273 -1.539313 -3.743764 59.556145 -1.865788 -6.405786 18.379982 -2.057200 0.000000 -57.945101 -2.979471 0.246896 -1.144764 -1.009842 0.419163 -2.457476 -4.474888 0.382185 3.191131 7.710025 -13.040878 -10.456273 -1.287961 -0.060444 -0.738337 0.000000 0.000000 0.000000 -2.928273 27.906215 1.181299 -69.894404 15.559979 -15.397220 -4.576461 -13.179738 -0.015548 -1.101768 5.700136 -0.047876 -0.148544 -0.043941 -0.000000 0.000000 0.000000 0.000000 0.000000 0.000000 0.000000 7.356297 -7.547349 0.055758 45.372670 7.048139 -9.214575 1.948487 42.990377 0.010931 0.487528 7.217494 0.028401 0.061960 -0.207977 0.000000 0.000000 0.000000 0.000000 0.000000 0.000000 0.000000 
